<svg xmlns="http://www.w3.org/2000/svg" version="1.1" xmlns:xlink="http://www.w3.org/1999/xlink" xmlns:svgjs="http://svgjs.dev/svgjs" viewBox="0 0 640 800" class="default_pointer_cs"><defs><linearGradient x1="50%" y1="0%" x2="50%" y2="100%" id="ssscribble-grad"><stop stop-color="hsl(206, 85%, 25%)" stop-opacity="1" offset="0%"></stop><stop stop-color="hsl(163, 71%, 18%)" stop-opacity="1" offset="100%"></stop></linearGradient></defs><g fill="none" stroke-width="2.25" stroke="url(#ssscribble-grad)" stroke-linecap="round"><path d="M458.64 183.25C299.62 211.41 380.97 247.56 580.79 295.83 716.54 352.22 668.61 431.9 514.06 532.97 333.56 635.62 220.02 736.57 172.61 805.02 163.33 820.72 160.56 770.31 132.39 659.59 104.23 530.99 53.33 424.05 13.8 365.38 12.39 360.81 81.98 396.45 225.56 446.5 343.19 510.26 361.25 556.97 204.85 577.54 -15.6 593.77 -108.37 586.87 50.64 558.71 284.22 530.55 335.91 483.78 189.79 418.75 -7.14 349.37 -69.62 258.71 12.08 158.03 179.03 71.05 331.06 5.52 424.37 -10.55 486.79 27.45 518.8 122.96 546.96 251.54 575.13 362.28 596.8 424.13 583.21 429.08 538.72 381.29 430.66 310.21 300.62 244.48 255.79 180.32 348.11 144.59 565.68 137.01 732.48 137.55 692.26 155.07 458.73 183.24Q458.64 183.25 458.64 183.25" opacity="0.99" class="default_pointer_cs"></path><path d="M424.64 276.5C275.99 299.97 292.24 341.38 430.91 398.53 598.2 457.75 676.74 533.59 650.34 617.09 546.86 691.13 422.31 753.21 324.65 783.55 234.2 775.36 179.23 720.77 155.76 625.59 132.29 517.89 142.53 421.1 192.31 354.02 249.29 321.35 337.21 320.18 409.93 337.45 405.56 372.58 302.13 404.87 117.63 422.79 -38.23 442.03 -64 441.69 84.64 418.22 286.8 394.75 381.65 350.37 324.08 290.45 165.87 231.86 28.11 162.93 -22.86 97.04 7.82 49.01 95.44 25.27 184.66 40.73 281.99 90.6 347.11 177.86 370.58 285.54 394.08 380.74 373.68 444.86 317.04 470.27 268.49 457.14 217.49 419.95 217.54 376.68 299.26 323.93 461.9 284.73 637.33 266.18 712.14 249.71 626.86 253.02 424.73 276.49Q424.64 276.5 424.64 276.5" opacity="0.30" class="default_pointer_cs"></path><path d="M390.73 426.86C259.9 445.64 229.17 480.93 293.54 527.94 419.96 573.46 538.22 626.67 606.79 678.34 630.1 718.58 604.92 744.52 561.33 745.63 503.55 722.67 457.72 669.84 438.94 591.58 420.16 505.24 430.21 423.16 455.45 357.33 466.5 309.85 462.37 282.75 414.45 271.52 321.27 274.38 183.09 281.69 42.91 285.17 -35.21 291.96 -12.09 288.07 118.73 269.29 284.66 250.51 397.25 218.62 414.34 179.29 341.62 143.27 229.39 106.65 132.63 79.18 57.52 65.8 31.81 72.98 40.06 106.7 65.4 158.77 95.45 233.24 114.23 319.58 133.01 397.84 138.74 458.28 145.94 495 170.23 507.66 225.25 501.63 324.97 486 512.41 446.99 609.15 407.84 390.73 426.86Q390.73 426.86 390.73 426.86" opacity="0.13" class="default_pointer_cs"></path><path d="M356.64 564.8C197.62 592.97 263.83 650.06 400.15 696.62 532.29 711.69 562.14 668.31 533.97 557.59 505.8 428.98 424.96 320.35 255.9 258.59 82.66 226.77 -6.37 208.99 152.64 180.82 386.23 152.65 447.32 119.43 366.23 114.34 223.51 139.19 155.1 224.98 183.27 353.59 211.44 464.31 330.84 530.53 510.48 552.37 628.49 542.72 590.23 536.63 356.64 564.8Q356.64 564.8 356.64 564.8" opacity="0.24" class="default_pointer_cs"></path><path d="M322.73 626.51C166.63 664.07 328.13 660.67 290.58 523.58 253.02 355.37 30.63 231.25 186.73 193.69 464.41 156.14 430.96 219.37 468.52 387.58 506.07 524.67 600.41 588.96 322.73 626.51Q322.73 626.51 322.73 626.51" opacity="0.97" class="default_pointer_cs"></path></g></svg>