<svg xmlns="http://www.w3.org/2000/svg" version="1.1" xmlns:xlink="http://www.w3.org/1999/xlink" xmlns:svgjs="http://svgjs.dev/svgjs" viewBox="0 0 800 800" class="default_pointer_cs"><defs><linearGradient x1="50%" y1="0%" x2="50%" y2="100%" id="uundulate-grad"><stop stop-color="hsl(206, 77%, 18%)" stop-opacity="1" offset="45%"></stop><stop stop-color="hsl(170, 27%, 29%)" stop-opacity="1" offset="100%"></stop></linearGradient></defs><g stroke-width="3" stroke="url(#uundulate-grad)" fill="none"><path d="M805.9188577771638 390.7577717401921C811.3651862267952 567.2059625648528 797.7199678278794 668.1754480645072 730.8241097490668 762.4864467526377C663.9282516702544 856.7974454407681 636.4808381180477 813.7611006367335 484.8187389988633 843.4505654432164C333.156639879679 873.1400302496995 61.426580580833445 984.353013020756 2.84603397698271 904.9958778237556C-55.73451262686808 825.6387426267547 164.56897848007554 655.9038751264652 203.63211530038063 462.5363164976152C242.69525212068572 269.16875786876506 85.96375365393499 90.79017676014064 190.34909071444667 -23.168403594723713C294.73442777495825 -137.12698394958807 576.438031719437 -170.69948906717383 704.6817331908364 -84.4648692057329C832.9254346622361 1.7697506557080374 800.4725293275324 214.30958091553146 805.9188577771638 390.7577717401921C811.3651862267952 567.2059625648528 797.7199678278794 668.1754480645072 730.8241097490668 762.4864467526377 "></path><path d="M787.4679673135711 391.17788828351786C792.6667353791281 559.6057067979667 779.6417541801634 655.9856702294551 715.7866169231152 746.0098053408524C651.9314796660667 836.0339404522492 625.7316758207784 794.9537931393074 480.9633084797389 823.2937368182229C336.1949411386993 851.6336804971386 76.81624817161946 957.7915276876925 20.89845368612555 882.0415349996465C-35.019340799368365 806.2915423116003 175.27035525725955 644.2718960613238 212.55789494936903 459.6937719156034C249.8454346414784 275.1156477698829 100.23809519594363 104.84518398437785 199.8786442082502 -3.933460899810825C299.5191932205569 -112.71210578399956 568.418087894832 -144.75858794169505 690.8325302084406 -62.44372352850144C813.2469725220494 19.87114088469218 782.269199248014 222.750069769069 787.4679673135711 391.17788828351786C792.6667353791281 559.6057067979667 779.6417541801634 655.9856702294551 715.7866169231152 746.0098053408524 " class="default_pointer_cs"></path><path d="M769.0171684027127 391.59800482684363C773.9683760841958 552.0054510310806 761.5636320851816 643.7958923944029 700.7492156498975 729.5331639290669C639.9347992146135 815.2704354637308 614.9826050762437 776.1464856418813 477.10796951334873 803.1369081932294C339.2333339504539 830.1273307445776 92.2060073151398 931.230042354629 38.95096494800271 859.0871921755374C-14.30407741913433 786.9443419964459 185.97182358717805 632.6399169961828 221.4837661510918 456.85122733359174C256.99570871500555 281.0625376710009 114.51252829068665 118.90019120861507 209.4082892547881 15.301481795102006C304.30405021888964 -88.29722761841106 560.3982356229612 -118.81768681621628 676.983418778779 -40.42257785126998C793.5686019345967 37.972531113676325 764.0659607212299 231.19055862260666 769.0171684027127 391.59800482684363C773.9683760841958 552.0054510310806 761.5636320851816 643.7958923944029 700.7492156498975 729.5331639290669 "></path><path d="M750.5663084566982 392.0181213701694C755.2699557541073 544.4051952641945 743.4854489550435 631.6061145593508 685.7117533415237 713.0565225172813C627.9380577280039 794.5069304752121 604.2334732965525 757.3391781444552 473.25256951180245 782.9800795682359C342.2716657270523 808.6209809920167 107.59570542350389 904.6685570215654 57.00341517472367 836.1328493514284C6.411124925943454 767.5971416812918 196.67323088194024 621.0079379310415 230.40957631765832 454.0086827515802C264.14592175337634 287.00942757211874 128.78690035027336 132.95519843285228 218.93787326616985 34.536424490014895C309.0888461820663 -63.882349452822496 552.3783223159343 -92.8767856907375 663.1342463139612 -18.40143217403852C773.890170311988 56.07392134266047 745.8626611592895 239.63104747614432 750.5663084566982 392.0181213701694C755.2699557541073 544.4051952641945 743.4854489550435 631.6061145593508 685.7117533415237 713.0565225172813 "></path><path d="M732.1154179931057 392.43817687833894C736.5715049064403 536.8048784621523 725.4072353073275 619.4162756891423 670.6742605155717 696.5798200703398C615.9412857238161 773.7433644515372 593.4843109992834 738.5318096118726 469.3971389926779 762.8231899080861C345.3099669860726 787.1145702042995 122.98537301428985 878.1070106533457 75.05583488386651 813.1784454921635C27.12629675344317 748.2498803309809 207.3746076591243 609.3758978307441 239.3353559666466 451.16607713441226C271.296104274169 292.9562564380806 143.061241892282 147.01014462193325 228.46742675997336 53.771306149771476C313.8736116276648 -39.46753232239024 544.3583784913292 -66.93594560041498 649.2850433315651 3.6196524680366906C754.2117081718011 74.17525053648842 727.6593310797709 248.07147529452573 732.1154179931057 392.43817687833894C736.5715049064403 536.8048784621523 725.4072353073275 619.4162756891423 670.6742605155717 696.5798200703398 "></path><path d="M713.6645580470911 392.8582934216647C717.8730845763516 529.2046226952662 707.3290521771894 607.2264978540901 655.636798207198 680.1031786585545C603.9445442372065 752.9798594630188 582.7351792195923 719.7245021144468 465.5417389911315 742.6663612830926C348.348298762671 765.6082204517386 138.375071122654 851.5455253202822 93.10828511058747 790.2241026680545C47.841499098520956 728.9026800158267 218.0760149538865 597.743918765603 248.26116613321312 448.3235325524006C278.4463173125398 298.90314633919843 157.33561395186877 161.06515184617047 237.99701077135512 73.00624884468436C318.6584075908413 -15.052654156801736 536.3384651843023 -40.99504447493621 635.4358708667473 25.640798145268207C734.5332765491924 92.27664076547251 709.4560315178305 256.51196414806327 713.6645580470911 392.8582934216647C717.8730845763516 529.2046226952662 707.3290521771894 607.2264978540901 655.636798207198 680.1031786585545 "></path><path d="M695.2137286186546 393.2784099649905C699.174694763841 521.6043669283802 689.2508995646295 595.036720019038 640.5993664164023 663.6265372467691C591.9478332681751 732.2163544745003 571.9860779574792 700.9171946170204 461.68636950716336 722.509532658099C351.3866610568475 744.1018706991777 153.7647997485962 824.9840399872187 111.16076585488656 767.2697598439456C68.55673196117692 709.5554797006725 228.77745276622682 586.1119397004618 257.18700681735777 445.48098797038904C285.5965608684887 304.8500362403163 171.61001652903366 175.12015907040768 247.5266253003149 92.24119153959725C323.4432340715962 9.362224008786825 528.3185823948534 -15.054143349457377 621.5867289195076 47.661943822499666C714.8548754441617 110.37803099445671 691.2527624734682 264.95245300160093 695.2137286186546 393.2784099649905C699.174694763841 521.6043669283802 689.2508995646295 595.036720019038 640.5993664164023 663.6265372467691 "></path><path d="M676.76286867264 393.69846547316C680.4762744337523 514.0040501263378 671.1727164344917 582.8468811488294 625.5619041080286 647.1498347998274C579.9510917815655 711.4527884508254 561.2369461777882 682.1098260844383 457.8309695056171 702.3526429979494C354.4249928334459 722.5954599114605 169.1544978569603 798.4224936189989 129.21321608160753 744.3153559846805C89.2719343062547 690.2082183503618 239.478860060989 574.4798996001643 266.1128169839243 442.6383823532211C292.7467739068595 310.796865106278 185.88438858862042 189.17510525948865 257.05620931169653 111.47607319935389C328.2280300347727 33.77704113921908 520.2986690878264 10.886696740865148 607.7375564546898 69.68302846457487C695.176443821553 128.4793601882846 673.0494629115278 273.39288081998234 676.76286867264 393.69846547316C680.4762744337523 514.0040501263378 671.1727164344917 582.8468811488294 625.5619041080286 647.1498347998274 "></path><path d="M658.3120087266255 394.1185820164858C661.7778541036637 506.4037943594517 653.0945333043536 570.6571033137773 610.5244417996548 630.673193388042C567.9543502949559 690.6892834623068 550.487814398097 663.3025185870122 453.9755695040707 682.1958143729559C357.4633246100443 701.0891101588996 184.54419596532443 771.8610082859354 147.2656663083285 721.3610131605715C109.98713665133255 670.8610180352075 250.1802673557512 562.8479205350231 275.0386271504908 439.79583777120956C299.8969869452304 316.743755007396 200.1587606482072 203.23011248372586 266.5857933230783 130.71101589426672C333.01282599794934 58.191919304807584 512.2787557807994 36.82759786634392 593.8883839898718 91.70417414180633C675.4980121989443 146.58075041726875 654.8461633495874 281.83336967352 658.3120087266255 394.1185820164858C661.7778541036637 506.4037943594517 653.0945333043536 570.6571033137773 610.5244417996548 630.673193388042 "></path><path d="M639.861133521822 394.53869855981156C643.0794185147859 498.8035385925657 635.0163349154266 558.4673254787251 595.486964232492 614.1965519762566C555.9575935495573 669.9257784737882 539.738667359617 644.4952110895861 450.1201542437352 662.0389857479624C360.50164112785365 679.5827604063387 199.93387881489946 745.2995229528719 165.3181012762604 698.4066703364626C130.70232373762127 651.5138177200531 260.8816593917243 551.215941469882 283.96442205826827 436.9532931891979C307.04718472481215 322.69064490851383 214.4331174490049 217.28511970796308 276.1153620756709 149.9459585891796C337.7976067023369 82.60679747039609 504.2588272149834 62.768498991822696 580.039196266265 113.7253198190378C655.8195653175464 164.6821406462529 636.6428485288579 290.27385852705766 639.861133521822 394.53869855981156C643.0794185147859 498.8035385925657 635.0163349154266 558.4673254787251 595.486964232492 614.1965519762566 "></path><path d="M621.4102735758074 394.9587845855592C624.3809981846973 491.20325230810136 616.9381517852886 546.2775171260948 580.4495019241182 597.7198800468932C543.9608520629477 649.1622429676916 528.9895355799258 625.6878730745818 446.2647542421889 641.8821266053908C363.53997290445204 658.0763801361996 215.32357692326354 718.7380071022304 183.3705515029813 675.4522969947756C151.4175260826991 632.1665868873207 271.5830666864865 539.5839318871626 292.89023222483473 434.1107180896081C314.19739776318295 328.63750429205356 228.70748950859166 231.34009641462217 285.6449460870526 169.18087076651432C342.5824026655134 107.02164511840652 496.23891390795643 88.70936959972335 566.1900238014471 135.74643497869113C636.1411336949377 182.7835003576589 618.4395489669175 298.7143168630171 621.4102735758074 394.9587845855592C624.3809981846973 491.20325230810136 616.9381517852886 546.2775171260948 580.4495019241182 597.7198800468932 "></path><path d="M602.959444147371 395.3789011288851C605.6826083721867 483.6029965412155 598.8599991727287 534.0877392910427 565.4120701333225 581.2432386351079C531.9641410939163 628.3987379791731 518.240434317813 606.8805655771558 442.40938475822077 621.7252979803973C366.57833519862857 636.5700303836388 230.7133055492058 692.176521769167 201.4230322472804 652.4979541706668C172.13275894535502 612.8193865721664 282.28450449882683 527.9519528220217 301.8160729089794 431.26817350759666C321.3476413191319 334.58439419317165 242.98189208575656 245.39510363885938 295.1745606160124 188.4158134614272C347.3672291462682 131.43652328399503 488.2190311185076 114.65027072520212 552.3408818542073 157.7675806559226C616.4627325899071 200.8848905866431 600.2362799225552 307.1548057165548 602.959444147371 395.3789011288851C605.6826083721867 483.6029965412155 598.8599991727287 534.0877392910427 565.4120701333225 581.2432386351079 "></path><path d="M584.5085842013564 395.7990024134218C586.9841880420979 476.0027255155403 580.7818160425908 521.8979461972015 550.3746078249487 564.7665819645334C519.9673996073068 607.6352177318654 507.4913025381218 588.0732428209407 438.55398475667437 601.5684540966147C369.61666697522696 615.0636653722888 246.1030036575699 665.6150211773145 219.47548247400135 629.5435960877687C192.84796129043286 593.472170998223 292.985911793589 516.3199584980914 310.7418830755459 428.4256136667959C328.4978543575028 340.53126883550044 257.2562641453433 259.45009560430753 304.70414462739404 207.65074089755103C352.1520251094448 155.85138619079447 480.1991178114806 140.59115659189183 538.4917093893895 179.78871107436504C596.7843009672983 218.9862655568382 582.0329803606149 315.59527931130333 584.5085842013564 395.7990024134218C586.9841880420979 476.0027255155403 580.7818160425908 521.8979461972015 550.3746078249487 564.7665819645334 "></path><path d="M566.0577089965528 396.21908843916947C568.2857524532201 468.4024392310762 562.7036176536637 509.7081378445712 535.3371302577859 548.2899100351699C507.9706428619081 586.8716822257686 496.74215549964174 569.2659048059363 434.6985694963389 581.411594954043C372.6549834930363 593.5572851021498 261.4926865071449 639.0535053266728 237.52791744193325 606.5892227460818C213.56314837672159 574.1249401654904 303.68730382956215 504.6879489153721 319.6676779833233 425.58303856720613C335.6480521370845 346.4781282190403 271.530620946141 273.5050723109666 314.2337133799867 226.88565307488574C356.9368058138324 180.26623383880485 472.1791892456646 166.53202719979254 524.6425216657826 201.80982623401837C577.1058540859005 237.0876252682442 563.8296655398855 324.03573764726286 566.0577089965528 396.21908843916947C568.2857524532201 468.4024392310762 562.7036176536637 509.7081378445712 535.3371302577859 548.2899100351699 "></path><path d="M547.6068490505382 396.6391897237062C549.5873321231314 460.802168205401 544.6254345235257 497.51834475072997 520.2996679494121 531.8132533645955C495.9739013752985 566.1081619784611 485.99302371995054 550.4585820497211 430.8431694947926 561.2547510702605C375.6933152696347 572.0509200907998 276.88238461550907 612.4920047348203 255.58036766865422 583.6348646631837C234.27835072179937 554.7777245915472 314.38871112432435 493.05595459144183 328.5934881498898 422.7404787264054C342.7982651754553 352.4250028613691 285.8049930057278 287.5600642764148 323.7632973913684 246.12058051100956C361.721601777009 204.68109674560435 464.1592759386376 192.47291306648225 510.7933492009647 223.83095665246077C557.4274224632918 255.1890002384393 545.626365977945 332.4762112420114 547.6068490505382 396.6391897237062C549.5873321231314 460.802168205401 544.6254345235257 497.51834475072997 520.2996679494121 531.8132533645955 "></path><path d="M529.1560196221019 397.0592910082429C530.8889423106209 453.20189717972585 526.5472819109659 485.32855165688864 505.2622361586165 515.336596694021C483.977190406267 545.3446417311534 475.2439224578376 531.6512592935061 426.9878000108244 541.0979071864779C378.7316775638112 550.5445550794498 292.2721132414513 585.9305041429677 273.6328484129533 560.6805065802857C254.99358358445534 535.4305090176038 325.09014893666466 481.4239602675116 337.51932883403447 419.8979188856048C349.9485087314043 358.371877503698 300.07939558289263 301.61505624186293 333.2929119203282 265.35550794713333C366.50642825776373 229.0959596524038 456.1393931491888 218.41379893317196 496.9442072537249 245.85208707090317C537.7490213582612 273.2903752086344 527.4230969335828 340.91668483676 529.1560196221019 397.0592910082429C530.8889423106209 453.20189717972585 526.5472819109659 485.32855165688864 505.2622361586165 515.336596694021 " class="default_pointer_cs"></path><path d="M510.7051596760873 397.47937703399054C512.1905219805323 445.6016108952616 508.46909878082784 473.13874330425836 490.2247738502426 498.85992476465753C471.9804489196574 524.5811062250567 464.4947906781465 512.8439212785019 423.13240000927806 520.9410480439063C381.7700093404096 529.0381748093107 307.66181134981537 559.3689882923261 291.6852986396743 537.7261332385988C275.7087859295331 516.0832781848712 335.79155623142685 469.79195068479225 346.445139000601 417.055343786015C357.09872176977507 364.3187368872377 314.3537676424794 315.670032948522 342.8224959317099 284.5904201244681C371.2912242209403 253.51080730041417 448.1194798421618 244.3546695410726 483.0950347889071 267.8732022305565C518.0705897356524 291.3917349200404 509.21979737164236 349.3571431727195 510.7051596760873 397.47937703399054C512.1905219805323 445.6016108952616 508.46909878082784 473.13874330425836 490.2247738502426 498.85992476465753 " class="default_pointer_cs"></path><path d="M492.25428447128365 397.8994935773164C493.4920863916544 438.0013551283756 490.3909003919009 460.9489654692062 475.18729628307983 482.38328335287224C459.98369217425886 503.81760123653817 453.74564363966635 494.03661378107586 419.27698474894265 500.7842194189128C384.80832585821895 507.5318250567499 323.0514941993904 532.8075029592627 309.7377336076062 514.7717904144898C296.4239730158219 496.73607786971695 346.4929482674 458.1599716196512 355.3709339083784 414.21279920400343C364.24891954935686 370.2656267883557 328.6281244432771 329.72504017275924 352.3520646843025 303.825362819381C376.0760049253279 277.92568546600273 440.0995512763458 270.2955706665514 469.24584706530027 289.89434790778796C498.39214285425464 309.49312514902454 491.016482550913 357.79763202625713 492.25428447128365 397.8994935773164C493.4920863916544 438.0013551283756 490.3909003919009 460.9489654692062 475.18729628307983 482.38328335287224 " class="default_pointer_cs"></path><path d="M473.8034245252691 398.31961012064215C474.7936660615657 430.40109936148957 472.3127172617628 448.75918763415405 460.14983397470604 465.90664194108683C447.98695068764926 483.0540962480196 442.99651185997527 475.22930628364963 415.4215847473963 480.6273907939193C387.84665763481735 486.02547530418894 338.44119230775453 506.2460176261992 327.7901838343271 491.8174475903809C317.1391753608997 477.38887755456267 357.1943555621622 446.52799255451 364.2967440749449 411.37025462199176C371.39913258772765 376.2125166894736 342.90249650286387 343.78004739699645 361.8816486956842 323.0603055142938C380.8608008885045 302.34056363159124 432.0796379693188 296.23647179203016 455.39667460048236 311.9154935850194C478.7137112316459 327.5945153780087 472.8131829889725 366.2381208797948 473.8034245252691 398.31961012064215C474.7936660615657 430.40109936148957 472.3127172617628 448.75918763415405 460.14983397470604 465.90664194108683 " class="default_pointer_cs"></path><path d="M455.35257983804365 398.7396961463898C456.0952609902661 422.80081307702534 454.2345493904139 436.5693792815237 445.1123869251213 449.4299700117233C435.9902244598287 462.2905607419229 432.24739533907325 456.42196826864546 411.56620000463903 460.4705316513477C390.8850046702048 464.5190950340499 353.8309056749077 479.6845017755576 345.8426493198371 468.8630742486939C337.8543929647666 458.04164672183015 367.8957781157134 434.89598297179066 373.2225695003005 408.527679522402C378.54936088488756 382.1593760730134 357.1768838212397 357.83502410365554 371.41124796585495 342.2952176916286C385.64561211047015 326.7554112796016 424.0597399210809 322.17734239993086 441.54751739445356 333.9366087446728C459.0352948678262 345.69587508941476 454.6098986858212 374.67857921575427 455.35257983804365 398.7396961463898C456.0952609902661 422.80081307702534 454.2345493904139 436.5693792815237 445.1123869251213 449.4299700117233 " class="default_pointer_cs"></path><path d="M436.90170463324 399.1597974309266C437.39682540138836 415.2005420513502 436.1563510014869 424.3795861876825 430.0749093579585 432.9533133411489C423.9934677144301 441.5270404946153 421.4982483005931 437.6146455124303 407.7107847443036 440.3136877675651C393.92332118801414 443.01273002269994 369.2205885244827 453.12300118370507 363.895084287769 445.9087161657959C358.5695800510553 438.6944311478868 378.59717015168656 423.26398864786046 382.14836440807795 405.68511968160135C385.6995586644693 388.1062507153423 371.4512406220374 371.8900160691037 380.94081671844754 361.5301451277524C390.4303928148577 351.17027418640106 416.0398113552649 348.1182282666206 427.69832967084665 355.9577391631152C439.3568479864284 363.79725005960984 436.40658386509176 383.11905281050286 436.90170463324 399.1597974309266C437.39682540138836 415.2005420513502 436.1563510014869 424.3795861876825 430.0749093579585 432.9533133411489 " class="default_pointer_cs"></path><path d="M418.45085994601453 399.5798987154633C418.6984203300887 407.6002710256751 418.078183130138 412.1897930938412 415.0374623083738 416.4766566705744C411.99674148660955 420.7635202473076 410.7491317796911 418.80732275621517 403.85540000154634 420.1568438837826C396.9616682234016 421.50636501135 384.6103018916359 426.56150059185256 381.94754977327904 422.95435808289795C379.2847976549222 419.3472155739434 389.2985927052378 411.63199432393026 391.0741898334335 402.8425598408007C392.8497869616292 394.05312535767115 385.72562794041323 385.94500803455185 390.4704159886183 380.7650725638762C395.21520403682337 375.58513709320056 408.01991330702697 374.0591141333103 413.84917246481785 377.9788695815576C419.67843162260874 381.8986250298049 418.2032995619404 391.5595264052514 418.45085994601453 399.5798987154633C418.6984203300887 407.6002710256751 418.078183130138 412.1897930938412 415.0374623083738 416.4766566705744 " class="default_pointer_cs"></path></g></svg>